<svg width="221" height="20" viewBox="0 0 221 20" fill="none" xmlns="http://www.w3.org/2000/svg">
<path d="M7.19629 4.78931C6.78613 4.78931 6.41992 4.8772 6.09766 5.05298C5.77539 5.2229 5.5 5.47192 5.27148 5.80005C5.04297 6.12817 4.86719 6.52954 4.74414 7.00415C4.62695 7.4729 4.56836 8.0061 4.56836 8.60376C4.56836 9.41235 4.6709 10.092 4.87598 10.6428C5.08105 11.1936 5.3916 11.6096 5.80762 11.8909C6.22949 12.1721 6.75684 12.3127 7.38965 12.3127C7.96387 12.3127 8.51465 12.2336 9.04199 12.0754C9.5752 11.9172 10.1113 11.7268 10.6504 11.5042V14.4397C10.082 14.6917 9.49902 14.8733 8.90137 14.9846C8.30957 15.0959 7.67969 15.1516 7.01172 15.1516C5.61719 15.1516 4.47461 14.8762 3.58398 14.3254C2.69922 13.7688 2.0459 12.9983 1.62402 12.0139C1.20801 11.0295 1 9.88696 1 8.58618C1 7.61353 1.13477 6.7229 1.4043 5.91431C1.67969 5.10571 2.08105 4.40552 2.6084 3.81372C3.13574 3.21606 3.78613 2.7561 4.55957 2.43384C5.33887 2.10571 6.22949 1.94165 7.23145 1.94165C7.85254 1.94165 8.50586 2.01489 9.19141 2.16138C9.88281 2.302 10.5566 2.53052 11.2129 2.84692L10.1494 5.58032C9.68066 5.35767 9.20605 5.17017 8.72559 5.01782C8.24512 4.86548 7.73535 4.78931 7.19629 4.78931Z" fill="white"/>
<path d="M15.8984 14.9758H12.4619V1.30005H15.8984V14.9758Z" fill="white"/>
<path d="M27.29 9.97485C27.29 10.8069 27.1758 11.5452 26.9473 12.1897C26.7188 12.8342 26.3877 13.3762 25.9541 13.8157C25.5205 14.2551 24.9961 14.5891 24.3809 14.8176C23.7656 15.0403 23.0713 15.1516 22.2979 15.1516C21.5771 15.1516 20.915 15.0403 20.3115 14.8176C19.7139 14.5891 19.1924 14.2551 18.7471 13.8157C18.3018 13.3762 17.9561 12.8342 17.71 12.1897C17.4697 11.5452 17.3496 10.8069 17.3496 9.97485C17.3496 8.87329 17.5488 7.94165 17.9473 7.17993C18.3516 6.41821 18.9258 5.83813 19.6699 5.4397C20.4199 5.04126 21.3135 4.84204 22.3506 4.84204C23.3057 4.84204 24.1553 5.04126 24.8994 5.4397C25.6436 5.83813 26.2266 6.41821 26.6484 7.17993C27.0762 7.94165 27.29 8.87329 27.29 9.97485ZM20.8389 9.97485C20.8389 10.5432 20.8887 11.0237 20.9883 11.4163C21.0879 11.803 21.2461 12.0989 21.4629 12.304C21.6855 12.5032 21.9756 12.6028 22.333 12.6028C22.6904 12.6028 22.9746 12.5032 23.1855 12.304C23.3965 12.0989 23.5488 11.803 23.6426 11.4163C23.7422 11.0237 23.792 10.5432 23.792 9.97485C23.792 9.40649 23.7422 8.93188 23.6426 8.55103C23.5488 8.17017 23.3936 7.88306 23.1768 7.6897C22.9658 7.49634 22.6787 7.39966 22.3154 7.39966C21.7939 7.39966 21.416 7.61646 21.1816 8.05005C20.9531 8.48364 20.8389 9.12524 20.8389 9.97485Z" fill="white"/>
<path d="M38.4443 5.01782V14.9758H35.8516L35.4209 13.7366H35.2188C35.0137 14.0706 34.7529 14.343 34.4365 14.554C34.126 14.759 33.7803 14.9084 33.3994 15.0022C33.0186 15.1018 32.623 15.1516 32.2129 15.1516C31.5625 15.1516 30.9736 15.0256 30.4463 14.7737C29.9248 14.5217 29.5088 14.1262 29.1982 13.5872C28.8936 13.0481 28.7412 12.3538 28.7412 11.5042V5.01782H32.1777V10.4583C32.1777 11.1028 32.2686 11.595 32.4502 11.9348C32.6377 12.2688 32.9424 12.4358 33.3643 12.4358C33.7979 12.4358 34.1318 12.3186 34.3662 12.0842C34.6064 11.8499 34.7734 11.5042 34.8672 11.0471C34.9609 10.5901 35.0078 10.0334 35.0078 9.3772V5.01782H38.4443Z" fill="white"/>
<path d="M43.4111 15.1516C42.3857 15.1516 41.542 14.7151 40.8799 13.842C40.2178 12.969 39.8867 11.6917 39.8867 10.01C39.8867 8.31079 40.2266 7.02466 40.9062 6.15161C41.5859 5.27856 42.4648 4.84204 43.543 4.84204C43.9883 4.84204 44.3721 4.90649 44.6943 5.0354C45.0166 5.16431 45.2949 5.34009 45.5293 5.56274C45.7695 5.77954 45.9775 6.02563 46.1533 6.30103H46.2236C46.1826 6.04907 46.1445 5.70337 46.1094 5.26392C46.0742 4.8186 46.0566 4.38501 46.0566 3.96313V1.30005H49.5195V14.9758H46.9268L46.1885 13.719H46.0566C45.8984 13.9827 45.6992 14.2229 45.459 14.4397C45.2246 14.6565 44.9375 14.8293 44.5977 14.9583C44.2637 15.0872 43.8682 15.1516 43.4111 15.1516ZM44.8174 12.4358C45.3682 12.4358 45.7549 12.2629 45.9775 11.9172C46.2061 11.5657 46.3291 11.0325 46.3467 10.3176V10.0452C46.3467 9.26001 46.2354 8.65942 46.0127 8.24341C45.7959 7.82153 45.3857 7.6106 44.7822 7.6106C44.3721 7.6106 44.0322 7.80981 43.7627 8.20825C43.4932 8.60669 43.3584 9.22485 43.3584 10.0627C43.3584 10.8889 43.4932 11.4924 43.7627 11.8733C44.0381 12.2483 44.3896 12.4358 44.8174 12.4358Z" fill="white"/>
<path d="M58.8018 11.9172C58.8018 12.55 58.6611 13.1096 58.3799 13.5959C58.0986 14.0823 57.6475 14.4631 57.0264 14.7385C56.4111 15.0139 55.5996 15.1516 54.5918 15.1516C53.8828 15.1516 53.2471 15.1135 52.6846 15.0374C52.1279 14.9612 51.5625 14.8147 50.9883 14.5979V11.8469C51.6152 12.134 52.2539 12.342 52.9043 12.4709C53.5547 12.594 54.0674 12.6555 54.4424 12.6555C54.8291 12.6555 55.1104 12.6145 55.2861 12.5325C55.4678 12.4446 55.5586 12.3157 55.5586 12.1458C55.5586 11.9993 55.4971 11.8762 55.374 11.7766C55.2568 11.6711 55.043 11.551 54.7324 11.4163C54.4277 11.2815 53.9971 11.0999 53.4404 10.8713C52.8896 10.6428 52.4297 10.3938 52.0605 10.1243C51.6973 9.85474 51.4248 9.53247 51.2432 9.15747C51.0615 8.78247 50.9707 8.32251 50.9707 7.77759C50.9707 6.80493 51.3457 6.07251 52.0957 5.58032C52.8457 5.08813 53.8389 4.84204 55.0752 4.84204C55.7314 4.84204 56.3496 4.91528 56.9297 5.06177C57.5098 5.20239 58.1104 5.4104 58.7314 5.68579L57.791 7.90063C57.2988 7.67798 56.8008 7.49927 56.2969 7.3645C55.793 7.22974 55.3916 7.16235 55.0928 7.16235C54.8232 7.16235 54.6152 7.19751 54.4688 7.26782C54.3223 7.33813 54.249 7.44067 54.249 7.57544C54.249 7.69849 54.2988 7.80688 54.3984 7.90063C54.5039 7.99438 54.7002 8.10278 54.9873 8.22583C55.2744 8.34888 55.6934 8.52173 56.2441 8.74438C56.8242 8.97876 57.3018 9.23071 57.6768 9.50024C58.0576 9.76392 58.3389 10.0862 58.5205 10.467C58.708 10.8479 58.8018 11.3313 58.8018 11.9172Z" fill="white"/>
<path d="M64.7529 15.1516C63.7451 15.1516 62.8691 14.9729 62.125 14.6155C61.3809 14.2522 60.8037 13.6956 60.3936 12.9456C59.9893 12.1897 59.7871 11.2229 59.7871 10.0452C59.7871 8.83813 60.0127 7.85083 60.4639 7.08325C60.9209 6.31567 61.5449 5.75024 62.3359 5.38696C63.127 5.02368 64.0234 4.84204 65.0254 4.84204C65.6348 4.84204 66.2119 4.90942 66.7568 5.04419C67.3076 5.17896 67.8174 5.36353 68.2861 5.5979L67.2754 8.13794C66.8652 7.9563 66.4814 7.81274 66.124 7.70728C65.7725 7.59595 65.4062 7.54028 65.0254 7.54028C64.6797 7.54028 64.375 7.6311 64.1113 7.81274C63.8477 7.99438 63.6426 8.26978 63.4961 8.63892C63.3496 9.0022 63.2764 9.46509 63.2764 10.0276C63.2764 10.6018 63.3496 11.0647 63.4961 11.4163C63.6484 11.7678 63.8564 12.0227 64.1201 12.1809C64.3896 12.3391 64.6973 12.4182 65.043 12.4182C65.541 12.4182 66.0361 12.342 66.5283 12.1897C67.0264 12.0315 67.498 11.8147 67.9434 11.5393V14.2727C67.5332 14.5422 67.0703 14.7561 66.5547 14.9143C66.0391 15.0725 65.4385 15.1516 64.7529 15.1516Z" fill="white"/>
<path d="M74.2812 4.84204C75.541 4.84204 76.5254 5.15552 77.2344 5.78247C77.9434 6.40356 78.2979 7.29126 78.2979 8.44556V14.9758H75.916L75.2568 13.6575H75.1865C74.9053 14.009 74.6152 14.2961 74.3164 14.5188C74.0234 14.7356 73.6865 14.8938 73.3057 14.9934C72.9248 15.0989 72.459 15.1516 71.9082 15.1516C71.334 15.1516 70.8184 15.0344 70.3613 14.8C69.9043 14.5657 69.5439 14.2112 69.2803 13.7366C69.0166 13.262 68.8848 12.6614 68.8848 11.9348C68.8848 10.8684 69.2539 10.0774 69.9922 9.56177C70.7305 9.04614 71.7998 8.7561 73.2002 8.69165L74.8613 8.63892V8.49829C74.8613 8.05298 74.75 7.73657 74.5273 7.54907C74.3105 7.36157 74.0176 7.26782 73.6484 7.26782C73.2559 7.26782 72.8164 7.33813 72.3301 7.47876C71.8496 7.61353 71.3662 7.78931 70.8799 8.0061L69.8867 5.73853C70.4609 5.44556 71.1113 5.2229 71.8379 5.07056C72.5645 4.91821 73.3789 4.84204 74.2812 4.84204ZM74.8789 10.5286L74.0879 10.5637C73.4551 10.5872 73.0098 10.6985 72.752 10.8977C72.5 11.0911 72.374 11.3694 72.374 11.7327C72.374 12.0725 72.4648 12.3245 72.6465 12.4885C72.8281 12.6467 73.0684 12.7258 73.3672 12.7258C73.7832 12.7258 74.1377 12.594 74.4307 12.3303C74.7295 12.0667 74.8789 11.7239 74.8789 11.302V10.5286Z" fill="white"/>
<path d="M86.2178 4.84204C87.3193 4.84204 88.1836 5.28442 88.8105 6.16919C89.4375 7.0481 89.751 8.31665 89.751 9.97485C89.751 11.1057 89.5928 12.0579 89.2764 12.8313C88.96 13.5989 88.5264 14.179 87.9756 14.5715C87.4307 14.9583 86.8096 15.1516 86.1123 15.1516C85.6436 15.1516 85.2451 15.093 84.917 14.9758C84.5947 14.8586 84.3252 14.7122 84.1084 14.5364C83.8975 14.3606 83.7188 14.1819 83.5723 14.0002H83.4668C83.4961 14.2288 83.5195 14.4749 83.5371 14.7385C83.5605 15.0022 83.5723 15.3098 83.5723 15.6614V19.3H80.1357V5.01782H82.9307L83.4141 6.28345H83.5723C83.7363 6.02563 83.9355 5.78833 84.1699 5.57153C84.4043 5.34888 84.6885 5.1731 85.0225 5.04419C85.3623 4.90942 85.7607 4.84204 86.2178 4.84204ZM84.9258 7.54028C84.5918 7.54028 84.3281 7.61938 84.1348 7.77759C83.9414 7.93579 83.8008 8.17603 83.7129 8.49829C83.6309 8.8147 83.584 9.21021 83.5723 9.68481V9.95728C83.5723 10.4846 83.6133 10.9299 83.6953 11.2932C83.7773 11.6506 83.918 11.9231 84.1172 12.1106C84.3164 12.2922 84.5918 12.3831 84.9434 12.3831C85.2305 12.3831 85.4707 12.301 85.6641 12.137C85.8574 11.9729 86.0039 11.7122 86.1035 11.3547C86.2031 10.9973 86.2529 10.5256 86.2529 9.9397C86.2529 9.06665 86.1387 8.44849 85.9102 8.08521C85.6875 7.72192 85.3594 7.54028 84.9258 7.54028Z" fill="white"/>
<path d="M95.7021 4.84204C96.6689 4.84204 97.5039 5.01196 98.207 5.35181C98.9102 5.68579 99.4521 6.1897 99.833 6.86353C100.214 7.53735 100.404 8.3811 100.404 9.39478V10.9241H94.2607C94.29 11.4456 94.4834 11.8733 94.8408 12.2073C95.2041 12.5413 95.7373 12.7083 96.4404 12.7083C97.0615 12.7083 97.6299 12.6467 98.1455 12.5237C98.667 12.4006 99.2031 12.2102 99.7539 11.9524V14.4221C99.2734 14.6741 98.749 14.8586 98.1807 14.9758C97.6123 15.093 96.8945 15.1516 96.0273 15.1516C95.0254 15.1516 94.1289 14.9729 93.3379 14.6155C92.5469 14.2581 91.9229 13.7043 91.4658 12.9543C91.0146 12.2043 90.7891 11.2405 90.7891 10.0627C90.7891 8.86743 90.9941 7.88599 91.4043 7.11841C91.8145 6.34497 92.3887 5.77368 93.127 5.40454C93.8652 5.02954 94.7236 4.84204 95.7021 4.84204ZM95.8252 7.17993C95.4209 7.17993 95.0811 7.30884 94.8057 7.56665C94.5361 7.8186 94.3779 8.21704 94.3311 8.76196H97.2842C97.2783 8.46899 97.2197 8.20239 97.1084 7.96216C96.9971 7.72192 96.833 7.53149 96.6162 7.39087C96.4053 7.25024 96.1416 7.17993 95.8252 7.17993Z" fill="white"/>
<path d="M116.798 8.42798C116.798 9.87524 116.534 11.0852 116.007 12.0579C115.479 13.0247 114.715 13.7542 113.713 14.2463C112.717 14.7327 111.507 14.9758 110.083 14.9758H106.594V2.12622H110.47C111.776 2.12622 112.901 2.36646 113.845 2.84692C114.788 3.32153 115.515 4.02759 116.024 4.96509C116.54 5.89673 116.798 7.05103 116.798 8.42798ZM115.225 8.48071C115.225 7.32642 115.031 6.37427 114.645 5.62427C114.264 4.87427 113.701 4.31763 112.957 3.95435C112.219 3.58521 111.313 3.40063 110.241 3.40063H108.088V13.6926H109.907C111.677 13.6926 113.004 13.2561 113.889 12.3831C114.779 11.51 115.225 10.2092 115.225 8.48071Z" fill="white"/>
<path d="M122.644 5.16724C123.464 5.16724 124.167 5.34888 124.753 5.71216C125.339 6.07544 125.787 6.58521 126.098 7.24146C126.408 7.89185 126.563 8.65356 126.563 9.52661V10.4319H119.91C119.928 11.5627 120.209 12.4241 120.754 13.0159C121.299 13.6077 122.066 13.9036 123.057 13.9036C123.666 13.9036 124.205 13.8479 124.674 13.7366C125.143 13.6252 125.629 13.4612 126.133 13.2444V14.5276C125.646 14.7444 125.163 14.9026 124.683 15.0022C124.208 15.1018 123.646 15.1516 122.995 15.1516C122.069 15.1516 121.261 14.9641 120.569 14.5891C119.884 14.2083 119.351 13.6516 118.97 12.9192C118.589 12.1868 118.398 11.2903 118.398 10.2297C118.398 9.19263 118.571 8.29614 118.917 7.54028C119.269 6.77856 119.761 6.19263 120.394 5.78247C121.032 5.37231 121.782 5.16724 122.644 5.16724ZM122.626 6.36255C121.847 6.36255 121.226 6.61743 120.763 7.1272C120.3 7.63696 120.024 8.34888 119.937 9.26294H125.034C125.028 8.68872 124.938 8.18481 124.762 7.75122C124.592 7.31177 124.331 6.97192 123.979 6.73169C123.628 6.4856 123.177 6.36255 122.626 6.36255Z" fill="white"/>
<path d="M134.773 12.3391C134.773 12.9543 134.618 13.4729 134.308 13.8948C134.003 14.3108 133.563 14.6243 132.989 14.8352C132.421 15.0461 131.741 15.1516 130.95 15.1516C130.276 15.1516 129.693 15.0989 129.201 14.9934C128.709 14.8879 128.278 14.7385 127.909 14.5452V13.2004C128.302 13.3938 128.771 13.5696 129.315 13.7278C129.86 13.886 130.417 13.9651 130.985 13.9651C131.817 13.9651 132.421 13.8303 132.796 13.5608C133.171 13.2913 133.358 12.925 133.358 12.4622C133.358 12.1985 133.282 11.967 133.13 11.7678C132.983 11.5627 132.734 11.3665 132.383 11.179C132.031 10.9856 131.545 10.7747 130.924 10.5461C130.309 10.3118 129.775 10.0803 129.324 9.85181C128.879 9.61743 128.533 9.33325 128.287 8.99927C128.047 8.66528 127.927 8.23169 127.927 7.69849C127.927 6.88403 128.255 6.26001 128.911 5.82642C129.573 5.38696 130.44 5.16724 131.513 5.16724C132.093 5.16724 132.635 5.22583 133.139 5.34302C133.648 5.45435 134.123 5.60669 134.562 5.80005L134.07 6.96899C133.672 6.79907 133.247 6.65552 132.796 6.53833C132.345 6.42114 131.885 6.36255 131.416 6.36255C130.742 6.36255 130.224 6.47388 129.86 6.69653C129.503 6.91919 129.324 7.22388 129.324 7.6106C129.324 7.90942 129.406 8.15552 129.57 8.34888C129.74 8.54224 130.01 8.72388 130.379 8.8938C130.748 9.06372 131.234 9.26294 131.838 9.49146C132.441 9.71411 132.963 9.94556 133.402 10.1858C133.842 10.4202 134.179 10.7073 134.413 11.0471C134.653 11.3811 134.773 11.8118 134.773 12.3391Z" fill="white"/>
<path d="M138.079 5.34302V14.9758H136.62V5.34302H138.079ZM137.367 1.7395C137.607 1.7395 137.812 1.8186 137.982 1.97681C138.158 2.12915 138.246 2.36938 138.246 2.69751C138.246 3.01978 138.158 3.26001 137.982 3.41821C137.812 3.57642 137.607 3.65552 137.367 3.65552C137.115 3.65552 136.904 3.57642 136.734 3.41821C136.57 3.26001 136.488 3.01978 136.488 2.69751C136.488 2.36938 136.57 2.12915 136.734 1.97681C136.904 1.8186 137.115 1.7395 137.367 1.7395Z" fill="white"/>
<path d="M143.362 19.3C142.097 19.3 141.121 19.0627 140.436 18.5881C139.75 18.1194 139.407 17.4602 139.407 16.6106C139.407 16.0071 139.598 15.4915 139.979 15.0637C140.365 14.636 140.898 14.3518 141.578 14.2112C141.326 14.094 141.109 13.9182 140.928 13.6838C140.752 13.4495 140.664 13.1799 140.664 12.8752C140.664 12.5237 140.761 12.2161 140.954 11.9524C141.153 11.6829 141.455 11.425 141.859 11.179C141.355 10.9739 140.945 10.6282 140.629 10.1418C140.318 9.64966 140.163 9.07837 140.163 8.42798C140.163 7.73657 140.307 7.14771 140.594 6.66138C140.881 6.16919 141.297 5.79419 141.842 5.53638C142.387 5.27856 143.046 5.14966 143.819 5.14966C143.989 5.14966 144.159 5.15845 144.329 5.17603C144.505 5.18774 144.672 5.20825 144.83 5.23755C144.988 5.26099 145.126 5.29028 145.243 5.32544H148.548V6.26587L146.772 6.4856C146.948 6.71411 147.095 6.9895 147.212 7.31177C147.329 7.63403 147.388 7.99146 147.388 8.38403C147.388 9.34497 147.062 10.1096 146.412 10.678C145.762 11.2405 144.868 11.5217 143.731 11.5217C143.462 11.5217 143.187 11.4983 142.905 11.4514C142.618 11.6096 142.398 11.7854 142.246 11.9788C142.1 12.1721 142.026 12.3948 142.026 12.6467C142.026 12.8342 142.082 12.9836 142.193 13.095C142.311 13.2063 142.478 13.2883 142.694 13.3411C142.911 13.3879 143.172 13.4114 143.477 13.4114H145.173C146.222 13.4114 147.024 13.6311 147.581 14.0706C148.144 14.51 148.425 15.1516 148.425 15.9954C148.425 17.0618 147.991 17.8792 147.124 18.4475C146.257 19.0159 145.003 19.3 143.362 19.3ZM143.406 18.1575C144.203 18.1575 144.862 18.0754 145.384 17.9114C145.911 17.7532 146.304 17.5217 146.562 17.217C146.825 16.9182 146.957 16.5608 146.957 16.1448C146.957 15.7581 146.869 15.4651 146.693 15.2659C146.518 15.0725 146.26 14.9436 145.92 14.8792C145.58 14.8088 145.164 14.7737 144.672 14.7737H143.002C142.568 14.7737 142.19 14.8411 141.868 14.9758C141.546 15.1106 141.297 15.3098 141.121 15.5735C140.951 15.8372 140.866 16.1653 140.866 16.5579C140.866 17.0793 141.086 17.4749 141.525 17.7444C141.965 18.0198 142.592 18.1575 143.406 18.1575ZM143.784 10.4583C144.481 10.4583 145.006 10.2825 145.357 9.93091C145.709 9.57935 145.885 9.06665 145.885 8.39282C145.885 7.67212 145.706 7.13306 145.349 6.77563C144.991 6.41235 144.464 6.23071 143.767 6.23071C143.099 6.23071 142.583 6.41821 142.22 6.79321C141.862 7.16235 141.684 7.70435 141.684 8.41919C141.684 9.07544 141.865 9.57935 142.229 9.93091C142.592 10.2825 143.11 10.4583 143.784 10.4583Z" fill="white"/>
<path d="M154.508 5.16724C155.65 5.16724 156.515 5.44849 157.101 6.01099C157.687 6.56763 157.979 7.46411 157.979 8.70044V14.9758H156.538V8.79712C156.538 7.99438 156.354 7.3938 155.984 6.99536C155.621 6.59692 155.062 6.39771 154.306 6.39771C153.239 6.39771 152.489 6.69946 152.056 7.30298C151.622 7.90649 151.405 8.78247 151.405 9.93091V14.9758H149.946V5.34302H151.124L151.344 6.73169H151.423C151.628 6.39185 151.889 6.10767 152.205 5.87915C152.521 5.64478 152.876 5.46899 153.269 5.35181C153.661 5.22876 154.074 5.16724 154.508 5.16724Z" fill="white"/>
<path d="M172.132 11.5569C172.132 12.3186 171.941 12.969 171.561 13.5081C171.186 14.0413 170.658 14.4485 169.979 14.7297C169.299 15.011 168.499 15.1516 167.579 15.1516C167.093 15.1516 166.633 15.1282 166.199 15.0813C165.766 15.0344 165.367 14.967 165.004 14.8792C164.641 14.7913 164.321 14.6829 164.046 14.554V13.1213C164.485 13.303 165.021 13.4729 165.654 13.6311C166.287 13.7834 166.949 13.8596 167.641 13.8596C168.285 13.8596 168.83 13.7747 169.275 13.6047C169.721 13.429 170.058 13.1799 170.286 12.8577C170.521 12.5295 170.638 12.137 170.638 11.6799C170.638 11.2405 170.541 10.8743 170.348 10.5813C170.154 10.2825 169.832 10.0129 169.381 9.77271C168.936 9.52661 168.326 9.26587 167.553 8.99048C167.008 8.79712 166.527 8.58618 166.111 8.35767C165.695 8.12329 165.347 7.85962 165.065 7.56665C164.784 7.27368 164.57 6.93384 164.424 6.54712C164.283 6.1604 164.213 5.71802 164.213 5.21997C164.213 4.53442 164.386 3.94849 164.731 3.46216C165.083 2.96997 165.566 2.59497 166.182 2.33716C166.803 2.07349 167.515 1.94165 168.317 1.94165C169.003 1.94165 169.636 2.0061 170.216 2.13501C170.802 2.26392 171.338 2.43677 171.824 2.65356L171.358 3.93677C170.896 3.74341 170.403 3.58228 169.882 3.45337C169.366 3.32446 168.833 3.26001 168.282 3.26001C167.731 3.26001 167.266 3.34204 166.885 3.5061C166.51 3.66431 166.223 3.88989 166.023 4.18286C165.824 4.47583 165.725 4.82446 165.725 5.22876C165.725 5.67993 165.818 6.05493 166.006 6.35376C166.199 6.65259 166.504 6.91919 166.92 7.15356C167.342 7.38208 167.898 7.62231 168.59 7.87427C169.346 8.14966 169.987 8.44263 170.515 8.75317C171.042 9.05786 171.443 9.43286 171.719 9.87817C171.994 10.3176 172.132 10.8772 172.132 11.5569Z" fill="white"/>
<path d="M172.52 5.34302H174.084L176.211 10.9329C176.334 11.261 176.448 11.5774 176.554 11.8821C176.659 12.1809 176.753 12.468 176.835 12.7434C176.917 13.0188 176.981 13.2854 177.028 13.5432H177.09C177.172 13.2502 177.289 12.8665 177.441 12.3918C177.594 11.9114 177.758 11.4221 177.934 10.9241L179.946 5.34302H181.52L177.327 16.3909C177.104 16.9827 176.844 17.4983 176.545 17.9377C176.252 18.3772 175.895 18.7141 175.473 18.9485C175.051 19.1887 174.541 19.3088 173.943 19.3088C173.668 19.3088 173.425 19.2913 173.214 19.2561C173.003 19.2268 172.821 19.1917 172.669 19.1506V17.9817C172.798 18.011 172.953 18.0374 173.135 18.0608C173.322 18.0842 173.516 18.0959 173.715 18.0959C174.078 18.0959 174.392 18.0256 174.655 17.885C174.925 17.7502 175.156 17.551 175.35 17.2874C175.543 17.0237 175.71 16.7102 175.851 16.3469L176.378 14.9934L172.52 5.34302Z" fill="white"/>
<path d="M188.789 12.3391C188.789 12.9543 188.634 13.4729 188.323 13.8948C188.019 14.3108 187.579 14.6243 187.005 14.8352C186.437 15.0461 185.757 15.1516 184.966 15.1516C184.292 15.1516 183.709 15.0989 183.217 14.9934C182.725 14.8879 182.294 14.7385 181.925 14.5452V13.2004C182.317 13.3938 182.786 13.5696 183.331 13.7278C183.876 13.886 184.433 13.9651 185.001 13.9651C185.833 13.9651 186.437 13.8303 186.812 13.5608C187.187 13.2913 187.374 12.925 187.374 12.4622C187.374 12.1985 187.298 11.967 187.146 11.7678C186.999 11.5627 186.75 11.3665 186.398 11.179C186.047 10.9856 185.561 10.7747 184.939 10.5461C184.324 10.3118 183.791 10.0803 183.34 9.85181C182.895 9.61743 182.549 9.33325 182.303 8.99927C182.062 8.66528 181.942 8.23169 181.942 7.69849C181.942 6.88403 182.271 6.26001 182.927 5.82642C183.589 5.38696 184.456 5.16724 185.528 5.16724C186.108 5.16724 186.65 5.22583 187.154 5.34302C187.664 5.45435 188.139 5.60669 188.578 5.80005L188.086 6.96899C187.688 6.79907 187.263 6.65552 186.812 6.53833C186.36 6.42114 185.9 6.36255 185.432 6.36255C184.758 6.36255 184.239 6.47388 183.876 6.69653C183.519 6.91919 183.34 7.22388 183.34 7.6106C183.34 7.90942 183.422 8.15552 183.586 8.34888C183.756 8.54224 184.025 8.72388 184.395 8.8938C184.764 9.06372 185.25 9.26294 185.854 9.49146C186.457 9.71411 186.979 9.94556 187.418 10.1858C187.857 10.4202 188.194 10.7073 188.429 11.0471C188.669 11.3811 188.789 11.8118 188.789 12.3391Z" fill="white"/>
<path d="M193.747 13.9563C193.987 13.9563 194.233 13.9358 194.485 13.8948C194.737 13.8538 194.942 13.804 195.101 13.7454V14.8792C194.931 14.9553 194.693 15.0198 194.389 15.0725C194.09 15.1252 193.797 15.1516 193.51 15.1516C193 15.1516 192.537 15.0637 192.121 14.8879C191.705 14.7063 191.371 14.4016 191.119 13.9739C190.873 13.5461 190.75 12.9543 190.75 12.1985V6.4856H189.379V5.77368L190.759 5.20239L191.339 3.1106H192.218V5.34302H195.039V6.4856H192.218V12.1545C192.218 12.7581 192.355 13.2092 192.631 13.5081C192.912 13.8069 193.284 13.9563 193.747 13.9563Z" fill="white"/>
<path d="M200.261 5.16724C201.081 5.16724 201.784 5.34888 202.37 5.71216C202.956 6.07544 203.404 6.58521 203.715 7.24146C204.025 7.89185 204.181 8.65356 204.181 9.52661V10.4319H197.527C197.545 11.5627 197.826 12.4241 198.371 13.0159C198.916 13.6077 199.684 13.9036 200.674 13.9036C201.283 13.9036 201.822 13.8479 202.291 13.7366C202.76 13.6252 203.246 13.4612 203.75 13.2444V14.5276C203.264 14.7444 202.78 14.9026 202.3 15.0022C201.825 15.1018 201.263 15.1516 200.612 15.1516C199.687 15.1516 198.878 14.9641 198.187 14.5891C197.501 14.2083 196.968 13.6516 196.587 12.9192C196.206 12.1868 196.016 11.2903 196.016 10.2297C196.016 9.19263 196.188 8.29614 196.534 7.54028C196.886 6.77856 197.378 6.19263 198.011 5.78247C198.649 5.37231 199.399 5.16724 200.261 5.16724ZM200.243 6.36255C199.464 6.36255 198.843 6.61743 198.38 7.1272C197.917 7.63696 197.642 8.34888 197.554 9.26294H202.651C202.646 8.68872 202.555 8.18481 202.379 7.75122C202.209 7.31177 201.948 6.97192 201.597 6.73169C201.245 6.4856 200.794 6.36255 200.243 6.36255Z" fill="white"/>
<path d="M216.618 5.16724C217.679 5.16724 218.479 5.44556 219.018 6.0022C219.557 6.55298 219.826 7.44067 219.826 8.66528V14.9758H218.385V8.7356C218.385 7.9563 218.215 7.37329 217.875 6.98657C217.541 6.59399 217.043 6.39771 216.381 6.39771C215.449 6.39771 214.772 6.66724 214.351 7.2063C213.929 7.74536 213.718 8.53931 213.718 9.58813V14.9758H212.268V8.7356C212.268 8.21411 212.191 7.78052 212.039 7.43481C211.893 7.08911 211.67 6.8313 211.371 6.66138C211.078 6.4856 210.706 6.39771 210.255 6.39771C209.616 6.39771 209.104 6.52954 208.717 6.79321C208.33 7.05688 208.049 7.44946 207.873 7.97095C207.703 8.48657 207.618 9.12231 207.618 9.87817V14.9758H206.159V5.34302H207.337L207.557 6.70532H207.636C207.829 6.37134 208.072 6.09009 208.365 5.86157C208.658 5.63306 208.986 5.46021 209.35 5.34302C209.713 5.22583 210.1 5.16724 210.51 5.16724C211.242 5.16724 211.854 5.30493 212.347 5.58032C212.845 5.84985 213.205 6.26294 213.428 6.81958H213.507C213.823 6.26294 214.257 5.84985 214.808 5.58032C215.358 5.30493 215.962 5.16724 216.618 5.16724Z" fill="white"/>
</svg>
