<svg width="255" height="143" viewBox="0 0 255 143" fill="none" xmlns="http://www.w3.org/2000/svg">
<g clip-path="url(#clip0_680_425414)">
<rect width="255" height="143" fill="#D1D5DB"/>
<path d="M63.2153 24.5065C63.2153 23.6745 63.8898 23 64.7218 23H242.488C243.32 23 243.995 23.6745 243.995 24.5065V143.519C243.995 144.351 243.32 145.026 242.488 145.026H64.7218C63.8898 145.026 63.2153 144.351 63.2153 143.519V24.5065Z" fill="#FAFAFA"/>
<path d="M63.2134 27.6554H243.993V54.8119H63.2134V27.6554Z" fill="#000716"/>
<path d="M71.499 38.8182C71.499 40.0662 70.4873 41.078 69.2392 41.078C67.9912 41.078 66.9795 40.0662 66.9795 38.8182C66.9795 37.5702 67.9912 36.5585 69.2392 36.5585C70.4873 36.5585 71.499 37.5702 71.499 38.8182Z" fill="#7D8998"/>
<circle cx="238.72" cy="38.8182" r="2.25974" fill="#7D8998"/>
<path d="M63.217 24.5065C63.217 23.6745 63.8915 23 64.7235 23H242.49C243.322 23 243.996 23.6745 243.996 24.5065V30.759H63.217V24.5065Z" fill="#232F3E"/>
<path d="M202.571 38.8182C202.571 37.1542 203.92 35.8052 205.584 35.8052H217.636C219.3 35.8052 220.649 37.1542 220.649 38.8182C220.649 40.4822 219.3 41.8312 217.636 41.8312H205.584C203.92 41.8312 202.571 40.4822 202.571 38.8182Z" fill="#539FE5"/>
<path fill-rule="evenodd" clip-rule="evenodd" d="M87.3232 37.3117H116.323V39.5714H87.3232V37.3117Z" fill="#D1D5DB"/>
<g filter="url(#filter0_d_680_425414)">
<rect x="87.323" y="47.1039" width="87.3766" height="27.1169" rx="2" fill="white"/>
</g>
<path fill-rule="evenodd" clip-rule="evenodd" d="M92.1777 52.3766H118.876V54.6364H92.1777V52.3766Z" fill="#D1D5DB"/>
<g filter="url(#filter1_d_680_425414)">
<rect width="64.7792" height="42.1818" rx="2" transform="matrix(1 0 0 -1 87.323 120.169)" fill="white"/>
</g>
<g filter="url(#filter2_d_680_425414)">
<path d="M87.323 143.026C87.323 144.131 88.2184 145.026 89.323 145.026H150.102C151.207 145.026 152.102 144.131 152.102 143.026V125.935C152.102 124.831 151.207 123.935 150.102 123.935H89.323C88.2184 123.935 87.323 124.831 87.323 125.935V143.026Z" fill="white"/>
</g>
<g filter="url(#filter3_d_680_425414)">
<path fill-rule="evenodd" clip-rule="evenodd" d="M157.868 120.169C156.764 120.169 155.868 119.273 155.868 118.169V79.987C155.868 78.8824 156.764 77.987 157.868 77.987H218.648C219.752 77.987 220.648 78.8824 220.648 79.987V118.169C220.648 119.273 219.752 120.169 218.648 120.169H157.868Z" fill="white"/>
</g>
<g filter="url(#filter4_d_680_425414)">
<path fill-rule="evenodd" clip-rule="evenodd" d="M178.466 49.1039C178.466 47.9993 179.361 47.1039 180.466 47.1039H218.648C219.752 47.1039 220.648 47.9993 220.648 49.1039V72.2208C220.648 73.3253 219.752 74.2208 218.648 74.2208H180.466C179.361 74.2208 178.466 73.3253 178.466 72.2208V49.1039Z" fill="white"/>
</g>
<g filter="url(#filter5_d_680_425414)">
<path fill-rule="evenodd" clip-rule="evenodd" d="M157.868 145.026C156.764 145.026 155.868 144.131 155.868 143.026V125.935C155.868 124.83 156.764 123.935 157.868 123.935H218.648C219.752 123.935 220.648 124.83 220.648 125.935V143.026C220.648 144.131 219.752 145.026 218.648 145.026H157.868Z" fill="white"/>
</g>
<path fill-rule="evenodd" clip-rule="evenodd" d="M92.113 84.013H118.459V86.2727H92.113V84.013Z" fill="#D1D5DB"/>
<g filter="url(#filter6_d_680_425414)">
<path d="M34.5969 43.3377C34.5969 42.5057 35.2714 41.8312 36.1034 41.8312H138.545C139.377 41.8312 140.051 42.5057 140.051 43.3377V143.519C140.051 144.352 139.377 145.026 138.545 145.026H36.1034C35.2714 145.026 34.5969 144.352 34.5969 143.519V43.3377Z" fill="#FAFAFA"/>
<path d="M34.5969 46.4866H140.051V73.6431H34.5969V46.4866Z" fill="#000716"/>
<path d="M34.5969 43.3377C34.5969 42.5057 35.2714 41.8312 36.1034 41.8312H138.545C139.377 41.8312 140.051 42.5057 140.051 43.3377V49.5902H34.5969V43.3377Z" fill="#232F3E"/>
<circle cx="134.025" cy="57.6493" r="2.25974" fill="#7D8998"/>
<path d="M42.8825 57.6493C42.8825 58.8973 41.8708 59.9091 40.6228 59.9091C39.3748 59.9091 38.363 58.8973 38.363 57.6493C38.363 56.4013 39.3748 55.3896 40.6228 55.3896C41.8708 55.3896 42.8825 56.4013 42.8825 57.6493Z" fill="#7D8998"/>
<path d="M106.906 57.6493C106.906 55.9853 108.255 54.6364 109.919 54.6364H121.971C123.635 54.6364 124.984 55.9853 124.984 57.6493C124.984 59.3134 123.635 60.6623 121.971 60.6623H109.919C108.255 60.6623 106.906 59.3134 106.906 57.6493Z" fill="#539FE5"/>
<path fill-rule="evenodd" clip-rule="evenodd" d="M49.6621 57.1428C49.6621 56.5905 50.1098 56.1428 50.6621 56.1428H77.6621C78.2144 56.1428 78.6621 56.5905 78.6621 57.1428V58.1428C78.6621 58.6951 78.2144 59.1428 77.6621 59.1428H50.6621C50.1098 59.1428 49.6621 58.6951 49.6621 58.1428V57.1428Z" fill="#D1D5DB"/>
<g filter="url(#filter7_d_680_425414)">
<rect x="49.6604" y="65.9351" width="75.3247" height="27.1169" rx="2" fill="white"/>
</g>
<path fill-rule="evenodd" clip-rule="evenodd" d="M54.5159 72.2078C54.5159 71.6555 54.9636 71.2078 55.5159 71.2078H80.2143C80.7666 71.2078 81.2143 71.6555 81.2143 72.2078V73.2078C81.2143 73.76 80.7666 74.2078 80.2143 74.2078H55.5159C54.9636 74.2078 54.5159 73.76 54.5159 73.2078V72.2078Z" fill="#D1D5DB"/>
<g filter="url(#filter8_d_680_425414)">
<path d="M49.6604 143.026C49.6604 144.131 50.5558 145.026 51.6604 145.026H122.985C124.09 145.026 124.985 144.131 124.985 143.026V128.195C124.985 127.09 124.09 126.195 122.985 126.195H51.6604C50.5558 126.195 49.6604 127.09 49.6604 128.195V143.026Z" fill="white"/>
</g>
<g filter="url(#filter9_d_680_425414)">
<path fill-rule="evenodd" clip-rule="evenodd" d="M49.6604 98.8182C49.6604 97.7136 50.5558 96.8182 51.6604 96.8182H122.985C124.09 96.8182 124.985 97.7136 124.985 98.8182V120.429C124.985 121.533 124.09 122.429 122.985 122.429H51.6604C50.5558 122.429 49.6604 121.533 49.6604 120.429V98.8182Z" fill="white"/>
</g>
<path fill-rule="evenodd" clip-rule="evenodd" d="M54.4495 132.468C54.4495 131.915 54.8972 131.468 55.4495 131.468H79.7951C80.3473 131.468 80.7951 131.915 80.7951 132.468V133.468C80.7951 134.02 80.3473 134.468 79.7951 134.468H55.4495C54.8972 134.468 54.4495 134.02 54.4495 133.468V132.468Z" fill="#D1D5DB"/>
</g>
<g filter="url(#filter10_d_680_425414)">
<path d="M12 66.6883C12 65.8563 12.6745 65.1818 13.5065 65.1818H55.6883C56.5203 65.1818 57.1948 65.8563 57.1948 66.6883V143.519C57.1948 144.352 56.5203 145.026 55.6883 145.026H13.5065C12.6745 145.026 12 144.352 12 143.519V66.6883Z" fill="#FAFAFA"/>
<path d="M12 65.3177H57.1948V95.4476H12V65.3177Z" fill="#000716"/>
<path d="M12 62.1688C12 61.3368 12.6745 60.6624 13.5065 60.6624H55.6883C56.5203 60.6624 57.1948 61.3368 57.1948 62.1688V68.4214H12V62.1688Z" fill="#232F3E"/>
<path d="M15.7661 83.2598C15.7661 81.5957 17.1151 80.2468 18.7791 80.2468H30.8311C32.4951 80.2468 33.844 81.5957 33.844 83.2598C33.844 84.9238 32.4951 86.2727 30.831 86.2727H18.7791C17.1151 86.2727 15.7661 84.9238 15.7661 83.2598Z" fill="#539FE5"/>
<path fill-rule="evenodd" clip-rule="evenodd" d="M15.7661 75.974C15.7661 75.4217 16.2138 74.974 16.7661 74.974H43.7661C44.3184 74.974 44.7661 75.4217 44.7661 75.974V76.974C44.7661 77.5263 44.3184 77.974 43.7661 77.974H16.7661C16.2138 77.974 15.7661 77.5263 15.7661 76.974V75.974Z" fill="#D1D5DB"/>
<g filter="url(#filter11_d_680_425414)">
<rect x="15.7666" y="89.2856" width="37.6623" height="39.9221" rx="2" fill="white"/>
</g>
<path fill-rule="evenodd" clip-rule="evenodd" d="M20.2856 95.5584C20.2856 95.0061 20.7334 94.5584 21.2856 94.5584H41.883C42.4353 94.5584 42.883 95.0061 42.883 95.5584V96.5584C42.883 97.1107 42.4353 97.5584 41.883 97.5584H21.2856C20.7334 97.5584 20.2856 97.1107 20.2856 96.5584V95.5584Z" fill="#D1D5DB"/>
<g filter="url(#filter12_d_680_425414)">
<path fill-rule="evenodd" clip-rule="evenodd" d="M15.7666 134.974C15.7666 133.869 16.662 132.974 17.7666 132.974H51.4289C52.5335 132.974 53.4289 133.869 53.4289 134.974V143.026C53.4289 144.13 52.5335 145.026 51.4289 145.026H17.7666C16.662 145.026 15.7666 144.13 15.7666 143.026V134.974Z" fill="white"/>
</g>
</g>
<path opacity="0.5" d="M0 105H255V143H0V105Z" fill="url(#paint0_linear_680_425414)"/>
</g>
<defs>
<filter id="filter0_d_680_425414" x="80.5698" y="41.8571" width="100.883" height="40.6234" filterUnits="userSpaceOnUse" color-interpolation-filters="sRGB">
<feFlood flood-opacity="0" result="BackgroundImageFix"/>
<feColorMatrix in="SourceAlpha" type="matrix" values="0 0 0 0 0 0 0 0 0 0 0 0 0 0 0 0 0 0 127 0" result="hardAlpha"/>
<feMorphology radius="0.753247" operator="dilate" in="SourceAlpha" result="effect1_dropShadow_680_425414"/>
<feOffset dy="1.50649"/>
<feGaussianBlur stdDeviation="3"/>
<feColorMatrix type="matrix" values="0 0 0 0 0 0 0 0 0 0.027451 0 0 0 0 0.0862745 0 0 0 0.1 0"/>
<feBlend mode="normal" in2="BackgroundImageFix" result="effect1_dropShadow_680_425414"/>
<feBlend mode="normal" in="SourceGraphic" in2="effect1_dropShadow_680_425414" result="shape"/>
</filter>
<filter id="filter1_d_680_425414" x="80.5698" y="72.7402" width="78.2858" height="55.6883" filterUnits="userSpaceOnUse" color-interpolation-filters="sRGB">
<feFlood flood-opacity="0" result="BackgroundImageFix"/>
<feColorMatrix in="SourceAlpha" type="matrix" values="0 0 0 0 0 0 0 0 0 0 0 0 0 0 0 0 0 0 127 0" result="hardAlpha"/>
<feMorphology radius="0.753247" operator="dilate" in="SourceAlpha" result="effect1_dropShadow_680_425414"/>
<feOffset dy="1.50649"/>
<feGaussianBlur stdDeviation="3"/>
<feColorMatrix type="matrix" values="0 0 0 0 0 0 0 0 0 0.027451 0 0 0 0 0.0862745 0 0 0 0.1 0"/>
<feBlend mode="normal" in2="BackgroundImageFix" result="effect1_dropShadow_680_425414"/>
<feBlend mode="normal" in="SourceGraphic" in2="effect1_dropShadow_680_425414" result="shape"/>
</filter>
<filter id="filter2_d_680_425414" x="80.5698" y="118.688" width="78.2858" height="34.5974" filterUnits="userSpaceOnUse" color-interpolation-filters="sRGB">
<feFlood flood-opacity="0" result="BackgroundImageFix"/>
<feColorMatrix in="SourceAlpha" type="matrix" values="0 0 0 0 0 0 0 0 0 0 0 0 0 0 0 0 0 0 127 0" result="hardAlpha"/>
<feMorphology radius="0.753247" operator="dilate" in="SourceAlpha" result="effect1_dropShadow_680_425414"/>
<feOffset dy="1.50649"/>
<feGaussianBlur stdDeviation="3"/>
<feColorMatrix type="matrix" values="0 0 0 0 0 0 0 0 0 0.027451 0 0 0 0 0.0862745 0 0 0 0.1 0"/>
<feBlend mode="normal" in2="BackgroundImageFix" result="effect1_dropShadow_680_425414"/>
<feBlend mode="normal" in="SourceGraphic" in2="effect1_dropShadow_680_425414" result="shape"/>
</filter>
<filter id="filter3_d_680_425414" x="149.115" y="72.7402" width="78.2858" height="55.6883" filterUnits="userSpaceOnUse" color-interpolation-filters="sRGB">
<feFlood flood-opacity="0" result="BackgroundImageFix"/>
<feColorMatrix in="SourceAlpha" type="matrix" values="0 0 0 0 0 0 0 0 0 0 0 0 0 0 0 0 0 0 127 0" result="hardAlpha"/>
<feMorphology radius="0.753247" operator="dilate" in="SourceAlpha" result="effect1_dropShadow_680_425414"/>
<feOffset dy="1.50649"/>
<feGaussianBlur stdDeviation="3"/>
<feColorMatrix type="matrix" values="0 0 0 0 0 0 0 0 0 0.027451 0 0 0 0 0.0862745 0 0 0 0.1 0"/>
<feBlend mode="normal" in2="BackgroundImageFix" result="effect1_dropShadow_680_425414"/>
<feBlend mode="normal" in="SourceGraphic" in2="effect1_dropShadow_680_425414" result="shape"/>
</filter>
<filter id="filter4_d_680_425414" x="171.713" y="41.8571" width="55.6884" height="40.6234" filterUnits="userSpaceOnUse" color-interpolation-filters="sRGB">
<feFlood flood-opacity="0" result="BackgroundImageFix"/>
<feColorMatrix in="SourceAlpha" type="matrix" values="0 0 0 0 0 0 0 0 0 0 0 0 0 0 0 0 0 0 127 0" result="hardAlpha"/>
<feMorphology radius="0.753247" operator="dilate" in="SourceAlpha" result="effect1_dropShadow_680_425414"/>
<feOffset dy="1.50649"/>
<feGaussianBlur stdDeviation="3"/>
<feColorMatrix type="matrix" values="0 0 0 0 0 0 0 0 0 0.027451 0 0 0 0 0.0862745 0 0 0 0.1 0"/>
<feBlend mode="normal" in2="BackgroundImageFix" result="effect1_dropShadow_680_425414"/>
<feBlend mode="normal" in="SourceGraphic" in2="effect1_dropShadow_680_425414" result="shape"/>
</filter>
<filter id="filter5_d_680_425414" x="149.115" y="118.688" width="78.2858" height="34.5974" filterUnits="userSpaceOnUse" color-interpolation-filters="sRGB">
<feFlood flood-opacity="0" result="BackgroundImageFix"/>
<feColorMatrix in="SourceAlpha" type="matrix" values="0 0 0 0 0 0 0 0 0 0 0 0 0 0 0 0 0 0 127 0" result="hardAlpha"/>
<feMorphology radius="0.753247" operator="dilate" in="SourceAlpha" result="effect1_dropShadow_680_425414"/>
<feOffset dy="1.50649"/>
<feGaussianBlur stdDeviation="3"/>
<feColorMatrix type="matrix" values="0 0 0 0 0 0 0 0 0 0.027451 0 0 0 0 0.0862745 0 0 0 0.1 0"/>
<feBlend mode="normal" in2="BackgroundImageFix" result="effect1_dropShadow_680_425414"/>
<feBlend mode="normal" in="SourceGraphic" in2="effect1_dropShadow_680_425414" result="shape"/>
</filter>
<filter id="filter6_d_680_425414" x="-6.40308" y="6.83118" width="187.455" height="185.195" filterUnits="userSpaceOnUse" color-interpolation-filters="sRGB">
<feFlood flood-opacity="0" result="BackgroundImageFix"/>
<feColorMatrix in="SourceAlpha" type="matrix" values="0 0 0 0 0 0 0 0 0 0 0 0 0 0 0 0 0 0 127 0" result="hardAlpha"/>
<feMorphology radius="1" operator="dilate" in="SourceAlpha" result="effect1_dropShadow_680_425414"/>
<feOffset dy="6"/>
<feGaussianBlur stdDeviation="20"/>
<feColorMatrix type="matrix" values="0 0 0 0 0 0 0 0 0 0.027451 0 0 0 0 0.0862745 0 0 0 0.14 0"/>
<feBlend mode="normal" in2="BackgroundImageFix" result="effect1_dropShadow_680_425414"/>
<feBlend mode="normal" in="SourceGraphic" in2="effect1_dropShadow_680_425414" result="shape"/>
</filter>
<filter id="filter7_d_680_425414" x="42.9072" y="61.1818" width="88.8312" height="40.6234" filterUnits="userSpaceOnUse" color-interpolation-filters="sRGB">
<feFlood flood-opacity="0" result="BackgroundImageFix"/>
<feColorMatrix in="SourceAlpha" type="matrix" values="0 0 0 0 0 0 0 0 0 0 0 0 0 0 0 0 0 0 127 0" result="hardAlpha"/>
<feMorphology radius="0.753247" operator="dilate" in="SourceAlpha" result="effect1_dropShadow_680_425414"/>
<feOffset dy="2"/>
<feGaussianBlur stdDeviation="3"/>
<feColorMatrix type="matrix" values="0 0 0 0 0 0 0 0 0 0.027451 0 0 0 0 0.0862745 0 0 0 0.1 0"/>
<feBlend mode="normal" in2="BackgroundImageFix" result="effect1_dropShadow_680_425414"/>
<feBlend mode="normal" in="SourceGraphic" in2="effect1_dropShadow_680_425414" result="shape"/>
</filter>
<filter id="filter8_d_680_425414" x="42.9072" y="121.442" width="88.8312" height="32.3377" filterUnits="userSpaceOnUse" color-interpolation-filters="sRGB">
<feFlood flood-opacity="0" result="BackgroundImageFix"/>
<feColorMatrix in="SourceAlpha" type="matrix" values="0 0 0 0 0 0 0 0 0 0 0 0 0 0 0 0 0 0 127 0" result="hardAlpha"/>
<feMorphology radius="0.753247" operator="dilate" in="SourceAlpha" result="effect1_dropShadow_680_425414"/>
<feOffset dy="2"/>
<feGaussianBlur stdDeviation="3"/>
<feColorMatrix type="matrix" values="0 0 0 0 0 0 0 0 0 0.027451 0 0 0 0 0.0862745 0 0 0 0.1 0"/>
<feBlend mode="normal" in2="BackgroundImageFix" result="effect1_dropShadow_680_425414"/>
<feBlend mode="normal" in="SourceGraphic" in2="effect1_dropShadow_680_425414" result="shape"/>
</filter>
<filter id="filter9_d_680_425414" x="42.9072" y="92.0649" width="88.8312" height="39.1169" filterUnits="userSpaceOnUse" color-interpolation-filters="sRGB">
<feFlood flood-opacity="0" result="BackgroundImageFix"/>
<feColorMatrix in="SourceAlpha" type="matrix" values="0 0 0 0 0 0 0 0 0 0 0 0 0 0 0 0 0 0 127 0" result="hardAlpha"/>
<feMorphology radius="0.753247" operator="dilate" in="SourceAlpha" result="effect1_dropShadow_680_425414"/>
<feOffset dy="2"/>
<feGaussianBlur stdDeviation="3"/>
<feColorMatrix type="matrix" values="0 0 0 0 0 0 0 0 0 0.027451 0 0 0 0 0.0862745 0 0 0 0.1 0"/>
<feBlend mode="normal" in2="BackgroundImageFix" result="effect1_dropShadow_680_425414"/>
<feBlend mode="normal" in="SourceGraphic" in2="effect1_dropShadow_680_425414" result="shape"/>
</filter>
<filter id="filter10_d_680_425414" x="-29" y="25.6624" width="127.195" height="185.195" filterUnits="userSpaceOnUse" color-interpolation-filters="sRGB">
<feFlood flood-opacity="0" result="BackgroundImageFix"/>
<feColorMatrix in="SourceAlpha" type="matrix" values="0 0 0 0 0 0 0 0 0 0 0 0 0 0 0 0 0 0 127 0" result="hardAlpha"/>
<feMorphology radius="1" operator="dilate" in="SourceAlpha" result="effect1_dropShadow_680_425414"/>
<feOffset dy="6"/>
<feGaussianBlur stdDeviation="20"/>
<feColorMatrix type="matrix" values="0 0 0 0 0 0 0 0 0 0.027451 0 0 0 0 0.0862745 0 0 0 0.14 0"/>
<feBlend mode="normal" in2="BackgroundImageFix" result="effect1_dropShadow_680_425414"/>
<feBlend mode="normal" in="SourceGraphic" in2="effect1_dropShadow_680_425414" result="shape"/>
</filter>
<filter id="filter11_d_680_425414" x="9.01335" y="84.0389" width="51.1688" height="53.4286" filterUnits="userSpaceOnUse" color-interpolation-filters="sRGB">
<feFlood flood-opacity="0" result="BackgroundImageFix"/>
<feColorMatrix in="SourceAlpha" type="matrix" values="0 0 0 0 0 0 0 0 0 0 0 0 0 0 0 0 0 0 127 0" result="hardAlpha"/>
<feMorphology radius="0.753247" operator="dilate" in="SourceAlpha" result="effect1_dropShadow_680_425414"/>
<feOffset dy="1.50649"/>
<feGaussianBlur stdDeviation="3"/>
<feColorMatrix type="matrix" values="0 0 0 0 0 0 0 0 0 0.027451 0 0 0 0 0.0862745 0 0 0 0.1 0"/>
<feBlend mode="normal" in2="BackgroundImageFix" result="effect1_dropShadow_680_425414"/>
<feBlend mode="normal" in="SourceGraphic" in2="effect1_dropShadow_680_425414" result="shape"/>
</filter>
<filter id="filter12_d_680_425414" x="9.01335" y="127.727" width="51.1688" height="25.5584" filterUnits="userSpaceOnUse" color-interpolation-filters="sRGB">
<feFlood flood-opacity="0" result="BackgroundImageFix"/>
<feColorMatrix in="SourceAlpha" type="matrix" values="0 0 0 0 0 0 0 0 0 0 0 0 0 0 0 0 0 0 127 0" result="hardAlpha"/>
<feMorphology radius="0.753247" operator="dilate" in="SourceAlpha" result="effect1_dropShadow_680_425414"/>
<feOffset dy="1.50649"/>
<feGaussianBlur stdDeviation="3"/>
<feColorMatrix type="matrix" values="0 0 0 0 0 0 0 0 0 0.027451 0 0 0 0 0.0862745 0 0 0 0.1 0"/>
<feBlend mode="normal" in2="BackgroundImageFix" result="effect1_dropShadow_680_425414"/>
<feBlend mode="normal" in="SourceGraphic" in2="effect1_dropShadow_680_425414" result="shape"/>
</filter>
<linearGradient id="paint0_linear_680_425414" x1="127.5" y1="105" x2="127.5" y2="143" gradientUnits="userSpaceOnUse">
<stop stop-color="#000716" stop-opacity="0"/>
<stop offset="1" stop-color="#000716" stop-opacity="0.06"/>
</linearGradient>
<clipPath id="clip0_680_425414">
<rect width="255" height="143" fill="white"/>
</clipPath>
</defs>
</svg>
