<svg width="255" height="143" viewBox="0 0 255 143" fill="none" xmlns="http://www.w3.org/2000/svg">
<g clip-path="url(#clip0_766_469635)">
<rect width="255" height="143" fill="#D1D5DB"/>
<rect x="85.8401" y="40.9995" width="84.3204" height="62.0003" rx="31.0001" fill="#0F1B2A" fill-opacity="0.7" stroke="black" stroke-width="2"/>
<rect x="160.24" y="40.9995" width="84.3204" height="62.0003" rx="31.0001" fill="#7DC0FD" fill-opacity="0.6" stroke="#0972D3" stroke-width="2"/>
<rect x="11.4385" y="40.9995" width="84.3204" height="62.0003" rx="31.0001" fill="#DEC33A" fill-opacity="0.6" stroke="#BC9D00" stroke-width="2"/>
<rect opacity="0.2" x="-62.9609" y="40.9995" width="84.3204" height="62.0003" rx="31.0001" fill="#DE893A"/>
<rect opacity="0.2" x="234.641" y="40.9995" width="84.3204" height="62.0003" rx="31.0001" fill="#3AD4DE"/>
<path d="M52.6383 74.8836V60.975C52.6383 59.9731 51.8261 59.1608 50.8242 59.1608V59.1608C49.8222 59.1608 49.01 59.9731 49.01 60.975V76.0487" stroke="#000716" stroke-width="1.73209" stroke-linecap="round"/>
<path d="M56.2636 74.8838V70.6507C56.2636 69.6488 55.4513 68.8365 54.4494 68.8365V68.8365C53.4475 68.8365 52.6353 69.6488 52.6353 70.6507V74.8838" stroke="#000716" stroke-width="1.73209" stroke-linecap="round"/>
<path d="M59.8908 74.8837V71.8601C59.8908 70.8582 59.0785 70.046 58.0766 70.046V70.046C57.0747 70.046 56.2625 70.8582 56.2625 71.8601V74.8837" stroke="#000716" stroke-width="1.73209" stroke-linecap="round"/>
<path d="M59.8931 74.8827V73.0686C59.8931 72.0666 60.7053 71.2544 61.7073 71.2544V71.2544C62.7092 71.2544 63.5214 72.0666 63.5214 73.0686V77.3016V80.3252C63.3198 82.7441 62.3116 88.1866 55.0549 88.1866C49.7334 88.1866 45.9837 80.9299 43.5648 77.3016L42.3558 75.4874C41.9527 74.8827 41.3878 73.4314 42.3554 72.4638C43.3229 71.4963 44.7742 71.8591 45.3794 72.4638L49.0077 76.0922" stroke="#000716" stroke-width="1.73209" stroke-linecap="round"/>
<path fill-rule="evenodd" clip-rule="evenodd" d="M46.3445 60.9695C46.3445 58.4727 48.3685 56.4486 50.8653 56.4486C53.3621 56.4486 55.3862 58.4727 55.3862 60.9695C55.3862 61.9874 55.0498 62.9268 54.482 63.6824V66.1642C56.1217 65.0205 57.1945 63.1203 57.1945 60.9695C57.1945 57.4739 54.3609 54.6403 50.8653 54.6403C47.3698 54.6403 44.5361 57.4739 44.5361 60.9695C44.5361 63.1203 45.6089 65.0205 47.2486 66.1642V63.6824C46.6809 62.9268 46.3445 61.9874 46.3445 60.9695Z" fill="#000716"/>
<mask id="path-11-inside-1_766_469635" fill="white">
<path fill-rule="evenodd" clip-rule="evenodd" d="M110.741 72.5552C110.505 72.1165 110.505 71.5889 110.741 71.1501C113.83 65.4065 119.897 61.502 126.875 61.502C133.854 61.502 139.92 65.4065 143.009 71.1501C143.245 71.5889 143.245 72.1165 143.009 72.5552C139.92 78.2989 133.854 82.2034 126.875 82.2034C119.897 82.2034 113.83 78.2989 110.741 72.5552Z"/>
</mask>
<path d="M143.01 71.15L141.474 71.9759L143.01 71.15ZM143.01 72.5551L144.545 73.381L143.01 72.5551ZM110.741 71.15L109.206 70.3242L110.741 71.15ZM112.277 71.9759C115.074 66.7749 120.564 63.2455 126.876 63.2455V59.7583C119.23 59.7583 112.587 64.038 109.206 70.3242L112.277 71.9759ZM126.876 63.2455C133.187 63.2455 138.677 66.7749 141.474 71.9759L144.545 70.3242C141.164 64.038 134.521 59.7583 126.876 59.7583V63.2455ZM141.474 71.7293C138.677 76.9303 133.187 80.4597 126.876 80.4597V83.9468C134.521 83.9468 141.164 79.6672 144.545 73.381L141.474 71.7293ZM126.876 80.4597C120.564 80.4597 115.074 76.9303 112.277 71.7293L109.206 73.381C112.587 79.6672 119.23 83.9468 126.876 83.9468V80.4597ZM141.474 71.9759C141.433 71.899 141.433 71.8062 141.474 71.7293L144.545 73.381C145.058 72.4266 145.058 71.2786 144.545 70.3242L141.474 71.9759ZM109.206 70.3242C108.693 71.2786 108.693 72.4266 109.206 73.381L112.277 71.7293C112.318 71.8062 112.318 71.899 112.277 71.9759L109.206 70.3242Z" fill="white" mask="url(#path-11-inside-1_766_469635)"/>
<circle cx="127.195" cy="71.9631" r="6.10247" stroke="white" stroke-width="1.74356"/>
<circle cx="127.197" cy="71.9639" r="3.48712" fill="white"/>
<path fill-rule="evenodd" clip-rule="evenodd" d="M208.134 67.8074C208.122 63.8179 204.921 60.5979 200.94 60.5979C196.945 60.5979 193.706 63.8364 193.706 67.8313H191.898C191.898 62.8377 195.946 58.7896 200.94 58.7896C205.939 58.7896 209.943 62.8433 209.943 67.8313H209.94C209.937 69.7368 209.551 71.1821 208.783 72.4328C208.03 73.6604 206.946 74.6345 205.697 75.6496C203.713 77.2615 202.579 78.3278 202.008 80.1817C201.65 81.3405 201.134 82.5261 200.341 83.4348C199.523 84.3719 198.409 85.0105 196.952 85.0105C194.053 85.0105 191.857 82.3095 191.857 79.5855H193.665C193.665 81.4908 195.223 83.2022 196.952 83.2022C197.81 83.2022 198.451 82.8511 198.979 82.2457C199.532 81.6118 199.955 80.7018 200.28 79.6487C201.027 77.2265 202.566 75.863 204.556 74.2462C205.791 73.2433 206.662 72.4324 207.242 71.4867C207.805 70.5694 208.132 69.4603 208.132 67.8074H208.134Z" fill="#000716"/>
<path d="M209.682 75.6642C214.021 71.3253 214.021 64.2905 209.682 59.9515" stroke="#000716" stroke-width="1.80834"/>
<path d="M196.382 67.8318C196.382 65.3349 198.406 63.3108 200.903 63.3108C203.4 63.3108 205.424 65.3349 205.424 67.8318" stroke="black" stroke-width="1.80834"/>
</g>
<defs>
<clipPath id="clip0_766_469635">
<rect width="255" height="143" fill="white"/>
</clipPath>
</defs>
</svg>
