<svg width="255" height="143" viewBox="0 0 255 143" fill="none" xmlns="http://www.w3.org/2000/svg">
<g clip-path="url(#clip0_766_469574)">
<rect width="255" height="143" fill="#D1D5DB"/>
<g clip-path="url(#clip1_766_469574)">
<rect width="255" height="159.375" transform="translate(0 -16)" fill="#D1D5DB"/>
<g clip-path="url(#clip2_766_469574)">
<path d="M10.5005 31.3575C10.5005 30.032 11.575 28.9575 12.9005 28.9575H80.1005C81.426 28.9575 82.5005 30.032 82.5005 31.3575V153.758C82.5005 155.083 81.426 156.158 80.1005 156.158H12.9005C11.575 156.158 10.5005 155.083 10.5005 153.758V31.3575Z" fill="#FAFAFA"/>
<path d="M48.5005 145.958C48.5005 142.644 51.1868 139.958 54.5005 139.958H70.5005C73.8142 139.958 76.5005 142.644 76.5005 145.958V145.958C76.5005 149.271 73.8142 151.958 70.5005 151.958H54.5005C51.1868 151.958 48.5005 149.271 48.5005 145.958V145.958Z" fill="#0972D3"/>
<path d="M10.5005 28.9575H82.5005V86.9575H10.5005V28.9575Z" fill="#000716"/>
<rect x="10.5005" y="21.9576" width="72" height="10" fill="#354150"/>
<path d="M48.5005 60.9576C48.5005 57.6439 51.1868 54.9576 54.5005 54.9576H70.5005C73.8142 54.9576 76.5005 57.6439 76.5005 60.9576V60.9576C76.5005 64.2713 73.8142 66.9576 70.5005 66.9576H54.5005C51.1868 66.9576 48.5005 64.2713 48.5005 60.9576V60.9576Z" fill="#539FE5"/>
<rect x="54.5005" y="59.9576" width="16" height="2" rx="1" fill="#000716"/>
<path fill-rule="evenodd" clip-rule="evenodd" d="M16.5002 43.9575C16.5002 42.853 17.3957 41.9575 18.5002 41.9575H50.5002C51.6048 41.9575 52.5002 42.853 52.5002 43.9575V45.9575C52.5002 47.0621 51.6048 47.9575 50.5002 47.9575H18.5002C17.3957 47.9575 16.5002 47.0621 16.5002 45.9575V43.9575Z" fill="#FBFBFB"/>
<path fill-rule="evenodd" clip-rule="evenodd" d="M55.4995 45.9575C55.4995 44.8529 56.3949 43.9575 57.4995 43.9575H63.4995C64.6041 43.9575 65.4995 44.8529 65.4995 45.9575V45.9575C65.4995 47.062 64.6041 47.9575 63.4995 47.9575H57.4995C56.3949 47.9575 55.4995 47.062 55.4995 45.9575V45.9575Z" fill="#539FE5"/>
<rect x="22.5005" y="59.9576" width="16" height="2" rx="1" fill="#539FE5"/>
<path d="M22.5002 55.9576H38.5002C41.2617 55.9576 43.5002 58.1962 43.5002 60.9576C43.5002 63.719 41.2617 65.9576 38.5002 65.9576H22.5002C19.7388 65.9576 17.5002 63.719 17.5002 60.9576C17.5002 58.1962 19.7388 55.9576 22.5002 55.9576Z" stroke="#539FE5" stroke-width="2"/>
<g filter="url(#filter0_d_766_469574)">
<rect x="16.5005" y="75.9578" width="60" height="58" rx="3" fill="white"/>
</g>
<path fill-rule="evenodd" clip-rule="evenodd" d="M20.4995 83.9577C20.4995 82.8531 21.3949 81.9577 22.4995 81.9577H56.4995C57.6041 81.9577 58.4995 82.8531 58.4995 83.9577V84.9577C58.4995 86.0623 57.6041 86.9577 56.4995 86.9577H22.4995C21.3949 86.9577 20.4995 86.0623 20.4995 84.9577V83.9577Z" fill="#0F1B2A"/>
<path fill-rule="evenodd" clip-rule="evenodd" d="M20.4995 94.4577C20.4995 93.6293 21.1711 92.9577 21.9995 92.9577H52.9995C53.8279 92.9577 54.4995 93.6293 54.4995 94.4577V94.4577C54.4995 95.2861 53.8279 95.9577 52.9995 95.9577H21.9995C21.1711 95.9577 20.4995 95.2861 20.4995 94.4577V94.4577Z" fill="#9BA7B6"/>
<path fill-rule="evenodd" clip-rule="evenodd" d="M20.4995 100.458C20.4995 99.6293 21.1711 98.9577 21.9995 98.9577H52.9995C53.8279 98.9577 54.4995 99.6293 54.4995 100.458V100.458C54.4995 101.286 53.8279 101.958 52.9995 101.958H21.9995C21.1711 101.958 20.4995 101.286 20.4995 100.458V100.458Z" fill="#9BA7B6"/>
</g>
<g clip-path="url(#clip3_766_469574)">
<path d="M90.4998 31.3575C90.4998 30.032 91.5743 28.9575 92.8998 28.9575H161.1C162.425 28.9575 163.5 30.032 163.5 31.3575V153.758C163.5 155.083 162.425 156.158 161.1 156.158H92.8998C91.5743 156.158 90.4998 155.083 90.4998 153.758V31.3575Z" fill="#FAFAFA"/>
<path d="M128.5 145.958C128.5 142.644 131.186 139.958 134.5 139.958H150.5C153.813 139.958 156.5 142.644 156.5 145.958V145.958C156.5 149.271 153.813 151.958 150.5 151.958H134.5C131.186 151.958 128.5 149.271 128.5 145.958V145.958Z" fill="#6B40B2"/>
<path d="M90.4998 28.9575H163.5V86.9575H90.4998V28.9575Z" fill="#300D6B"/>
<rect x="90.4998" y="21.9576" width="73" height="10" fill="#59309D"/>
<path d="M128.5 60.9576C128.5 57.6439 131.186 54.9576 134.5 54.9576H150.5C153.813 54.9576 156.5 57.6439 156.5 60.9576V60.9576C156.5 64.2713 153.813 66.9576 150.5 66.9576H134.5C131.186 66.9576 128.5 64.2713 128.5 60.9576V60.9576Z" fill="#A783E1"/>
<rect x="134.5" y="59.9576" width="16" height="2" rx="1" fill="#000716"/>
<path fill-rule="evenodd" clip-rule="evenodd" d="M96.4998 43.9575C96.4998 42.853 97.3952 41.9575 98.4998 41.9575H130.5C131.604 41.9575 132.5 42.853 132.5 43.9575V45.9575C132.5 47.0621 131.604 47.9575 130.5 47.9575H98.4998C97.3952 47.9575 96.4998 47.0621 96.4998 45.9575V43.9575Z" fill="#FBFBFB"/>
<path fill-rule="evenodd" clip-rule="evenodd" d="M135.5 45.9575C135.5 44.8529 136.395 43.9575 137.5 43.9575H143.5C144.605 43.9575 145.5 44.8529 145.5 45.9575V45.9575C145.5 47.062 144.605 47.9575 143.5 47.9575H137.5C136.395 47.9575 135.5 47.062 135.5 45.9575V45.9575Z" fill="#A783E1"/>
<rect x="102.5" y="59.9576" width="16" height="2" rx="1" fill="#A783E1"/>
<path d="M102.5 55.9576H118.5C121.261 55.9576 123.5 58.1962 123.5 60.9576C123.5 63.719 121.261 65.9576 118.5 65.9576H102.5C99.7383 65.9576 97.4998 63.719 97.4998 60.9576C97.4998 58.1962 99.7383 55.9576 102.5 55.9576Z" stroke="#A783E1" stroke-width="2"/>
<g filter="url(#filter1_d_766_469574)">
<rect x="96.4995" y="75.9576" width="61" height="58" rx="3" fill="white"/>
</g>
<path fill-rule="evenodd" clip-rule="evenodd" d="M100.5 83.9577C100.5 82.8531 101.395 81.9577 102.5 81.9577H136.5C137.605 81.9577 138.5 82.8531 138.5 83.9577V84.9577C138.5 86.0623 137.605 86.9577 136.5 86.9577H102.5C101.395 86.9577 100.5 86.0623 100.5 84.9577V83.9577Z" fill="#0F1B2A"/>
<path fill-rule="evenodd" clip-rule="evenodd" d="M100.5 94.4577C100.5 93.6293 101.172 92.9577 102 92.9577H133C133.828 92.9577 134.5 93.6293 134.5 94.4577V94.4577C134.5 95.2861 133.828 95.9577 133 95.9577H102C101.172 95.9577 100.5 95.2861 100.5 94.4577V94.4577Z" fill="#9BA7B6"/>
<path fill-rule="evenodd" clip-rule="evenodd" d="M100.5 100.458C100.5 99.6293 101.172 98.9577 102 98.9577H133C133.828 98.9577 134.5 99.6293 134.5 100.458V100.458C134.5 101.286 133.828 101.958 133 101.958H102C101.172 101.958 100.5 101.286 100.5 100.458V100.458Z" fill="#9BA7B6"/>
</g>
<g clip-path="url(#clip4_766_469574)">
<path d="M171.5 31.3575C171.5 30.032 172.574 28.9575 173.9 28.9575H241.1C242.425 28.9575 243.5 30.032 243.5 31.3575V153.758C243.5 155.083 242.425 156.158 241.1 156.158H173.9C172.574 156.158 171.5 155.083 171.5 153.758V31.3575Z" fill="#FAFAFA"/>
<path d="M209.5 145.958C209.5 142.644 212.186 139.958 215.5 139.958H231.5C234.813 139.958 237.5 142.644 237.5 145.958V145.958C237.5 149.271 234.813 151.958 231.5 151.958H215.5C212.186 151.958 209.5 149.271 209.5 145.958V145.958Z" fill="#A32952"/>
<path d="M171.5 28.9575H243.5V86.9575H171.5V28.9575Z" fill="#570022"/>
<rect x="171.5" y="21.9576" width="72" height="10" fill="#8B1B42"/>
<path d="M209.5 60.9576C209.5 57.6439 212.186 54.9576 215.5 54.9576H231.5C234.813 54.9576 237.5 57.6439 237.5 60.9576V60.9576C237.5 64.2713 234.813 66.9576 231.5 66.9576H215.5C212.186 66.9576 209.5 64.2713 209.5 60.9576V60.9576Z" fill="#DA7596"/>
<rect x="215.5" y="59.9576" width="16" height="2" rx="1" fill="#000716"/>
<path fill-rule="evenodd" clip-rule="evenodd" d="M177.5 43.9575C177.5 42.853 178.395 41.9575 179.5 41.9575H211.5C212.604 41.9575 213.5 42.853 213.5 43.9575V45.9575C213.5 47.0621 212.604 47.9575 211.5 47.9575H179.5C178.395 47.9575 177.5 47.0621 177.5 45.9575V43.9575Z" fill="#FBFBFB"/>
<path fill-rule="evenodd" clip-rule="evenodd" d="M216.5 45.9575C216.5 44.8529 217.395 43.9575 218.5 43.9575H224.5C225.604 43.9575 226.5 44.8529 226.5 45.9575V45.9575C226.5 47.062 225.604 47.9575 224.5 47.9575H218.5C217.395 47.9575 216.5 47.062 216.5 45.9575V45.9575Z" fill="#DA7596"/>
<rect x="183.5" y="59.9576" width="16" height="2" rx="1" fill="#DA7596"/>
<path d="M183.5 55.9576H199.5C202.261 55.9576 204.5 58.1962 204.5 60.9576C204.5 63.719 202.261 65.9576 199.5 65.9576H183.5C180.738 65.9576 178.5 63.719 178.5 60.9576C178.5 58.1962 180.738 55.9576 183.5 55.9576Z" stroke="#DA7596" stroke-width="2"/>
<g filter="url(#filter2_d_766_469574)">
<rect x="177.501" y="75.9577" width="60" height="58" rx="3" fill="white"/>
</g>
<path fill-rule="evenodd" clip-rule="evenodd" d="M181.501 83.9577C181.501 82.8531 182.396 81.9577 183.501 81.9577H217.501C218.605 81.9577 219.501 82.8531 219.501 83.9577V84.9577C219.501 86.0623 218.605 86.9577 217.501 86.9577H183.501C182.396 86.9577 181.501 86.0623 181.501 84.9577V83.9577Z" fill="#0F1B2A"/>
<path fill-rule="evenodd" clip-rule="evenodd" d="M181.501 94.4577C181.501 93.6293 182.172 92.9577 183.001 92.9577H214.001C214.829 92.9577 215.501 93.6293 215.501 94.4577V94.4577C215.501 95.2861 214.829 95.9577 214.001 95.9577H183.001C182.172 95.9577 181.501 95.2861 181.501 94.4577V94.4577Z" fill="#9BA7B6"/>
<path fill-rule="evenodd" clip-rule="evenodd" d="M181.501 100.458C181.501 99.6293 182.172 98.9577 183.001 98.9577H214.001C214.829 98.9577 215.501 99.6293 215.501 100.458V100.458C215.501 101.286 214.829 101.958 214.001 101.958H183.001C182.172 101.958 181.501 101.286 181.501 100.458V100.458Z" fill="#9BA7B6"/>
</g>
</g>
<path opacity="0.5" d="M0 105H255V143H0V105Z" fill="url(#paint0_linear_766_469574)"/>
</g>
<defs>
<filter id="filter0_d_766_469574" x="5.74187" y="67.5991" width="81.5172" height="79.5172" filterUnits="userSpaceOnUse" color-interpolation-filters="sRGB">
<feFlood flood-opacity="0" result="BackgroundImageFix"/>
<feColorMatrix in="SourceAlpha" type="matrix" values="0 0 0 0 0 0 0 0 0 0 0 0 0 0 0 0 0 0 127 0" result="hardAlpha"/>
<feMorphology radius="1.2" operator="dilate" in="SourceAlpha" result="effect1_dropShadow_766_469574"/>
<feOffset dy="2.4"/>
<feGaussianBlur stdDeviation="4.77931"/>
<feColorMatrix type="matrix" values="0 0 0 0 0 0 0 0 0 0.027451 0 0 0 0 0.0862745 0 0 0 0.1 0"/>
<feBlend mode="normal" in2="BackgroundImageFix" result="effect1_dropShadow_766_469574"/>
<feBlend mode="normal" in="SourceGraphic" in2="effect1_dropShadow_766_469574" result="shape"/>
</filter>
<filter id="filter1_d_766_469574" x="85.7409" y="67.599" width="82.5172" height="79.5172" filterUnits="userSpaceOnUse" color-interpolation-filters="sRGB">
<feFlood flood-opacity="0" result="BackgroundImageFix"/>
<feColorMatrix in="SourceAlpha" type="matrix" values="0 0 0 0 0 0 0 0 0 0 0 0 0 0 0 0 0 0 127 0" result="hardAlpha"/>
<feMorphology radius="1.2" operator="dilate" in="SourceAlpha" result="effect1_dropShadow_766_469574"/>
<feOffset dy="2.4"/>
<feGaussianBlur stdDeviation="4.77931"/>
<feColorMatrix type="matrix" values="0 0 0 0 0 0 0 0 0 0.027451 0 0 0 0 0.0862745 0 0 0 0.1 0"/>
<feBlend mode="normal" in2="BackgroundImageFix" result="effect1_dropShadow_766_469574"/>
<feBlend mode="normal" in="SourceGraphic" in2="effect1_dropShadow_766_469574" result="shape"/>
</filter>
<filter id="filter2_d_766_469574" x="166.742" y="67.5991" width="81.5172" height="79.5172" filterUnits="userSpaceOnUse" color-interpolation-filters="sRGB">
<feFlood flood-opacity="0" result="BackgroundImageFix"/>
<feColorMatrix in="SourceAlpha" type="matrix" values="0 0 0 0 0 0 0 0 0 0 0 0 0 0 0 0 0 0 127 0" result="hardAlpha"/>
<feMorphology radius="1.2" operator="dilate" in="SourceAlpha" result="effect1_dropShadow_766_469574"/>
<feOffset dy="2.4"/>
<feGaussianBlur stdDeviation="4.77931"/>
<feColorMatrix type="matrix" values="0 0 0 0 0 0 0 0 0 0.027451 0 0 0 0 0.0862745 0 0 0 0.1 0"/>
<feBlend mode="normal" in2="BackgroundImageFix" result="effect1_dropShadow_766_469574"/>
<feBlend mode="normal" in="SourceGraphic" in2="effect1_dropShadow_766_469574" result="shape"/>
</filter>
<linearGradient id="paint0_linear_766_469574" x1="127.5" y1="105" x2="127.5" y2="143" gradientUnits="userSpaceOnUse">
<stop stop-color="#000716" stop-opacity="0"/>
<stop offset="1" stop-color="#000716" stop-opacity="0.06"/>
</linearGradient>
<clipPath id="clip0_766_469574">
<rect width="255" height="143" fill="white"/>
</clipPath>
<clipPath id="clip1_766_469574">
<rect width="255" height="159.375" fill="white" transform="translate(0 -16)"/>
</clipPath>
<clipPath id="clip2_766_469574">
<rect x="10.5002" y="21.9577" width="72" height="164.4" rx="4" fill="white"/>
</clipPath>
<clipPath id="clip3_766_469574">
<rect x="90.499" y="21.9577" width="73" height="164.4" rx="4" fill="white"/>
</clipPath>
<clipPath id="clip4_766_469574">
<rect x="171.5" y="21.9577" width="72" height="164.4" rx="4" fill="white"/>
</clipPath>
</defs>
</svg>
